<svg id="visual" viewBox="0 0 1360 720" width="1360" height="720" xmlns="http://www.w3.org/2000/svg" xmlns:xlink="http://www.w3.org/1999/xlink" version="1.1"><rect x="0" y="0" width="1360" height="720" fill="#ffffff"></rect><path d="M0 437L25.2 424.8C50.3 412.7 100.7 388.3 151 374.7C201.3 361 251.7 358 302 378.7C352.3 399.3 402.7 443.7 453 443.5C503.3 443.3 553.7 398.7 604.2 355.8C654.7 313 705.3 272 755.8 290.3C806.3 308.7 856.7 386.3 907 388.3C957.3 390.3 1007.7 316.7 1058 275.5C1108.3 234.3 1158.7 225.7 1209 238C1259.3 250.3 1309.7 283.7 1334.8 300.3L1360 317L1360 0L1334.8 0C1309.7 0 1259.3 0 1209 0C1158.7 0 1108.3 0 1058 0C1007.7 0 957.3 0 907 0C856.7 0 806.3 0 755.8 0C705.3 0 654.7 0 604.2 0C553.7 0 503.3 0 453 0C402.7 0 352.3 0 302 0C251.7 0 201.3 0 151 0C100.7 0 50.3 0 25.2 0L0 0Z" fill="#017245" stroke-linecap="round" stroke-linejoin="miter"></path></svg>